<?xml version="1.0" encoding="iso-8859-1"?>
<!-- Generator: Adobe Illustrator 19.0.0, SVG Export Plug-In . SVG Version: 6.00 Build 0)  -->
<svg version="1.1" id="Capa_1" xmlns="http://www.w3.org/2000/svg" xmlns:xlink="http://www.w3.org/1999/xlink" x="0px" y="0px"
	 viewBox="0 0 513.637 513.637" style="enable-background:new 0 0 513.637 513.637;" xml:space="preserve">
<path style="fill:#EF9B85;" d="M316.397,249.766c-51.709,0-93.631,34.047-93.631,93.632h34.047
	c0-34.048,26.676-59.585,59.583-59.585c32.906,0,59.583,25.537,59.583,59.585h34.048
	C410.029,283.813,368.106,249.766,316.397,249.766z"/>
<g>
	<path style="fill:#E55934;" d="M316.397,317.861c14.103,0,25.535,8.513,25.535,25.536h34.048c0-34.047-26.677-59.584-59.583-59.584
		c-32.908,0-59.583,25.537-59.583,59.584h34.047C290.861,326.374,302.293,317.861,316.397,317.861z"/>
	<path style="fill:#E55934;" d="M316.397,317.861c-14.105,0-25.537,8.513-25.537,25.536h51.072
		C341.933,326.374,330.5,317.861,316.397,317.861z"/>
</g>
<path d="M316.397,232.742c-56.323,0-102.143,45.82-102.143,102.143c0,4.699,3.813,8.512,8.513,8.512h34.047h34.047h51.072h34.048
	h34.048c4.706,0,8.511-3.812,8.511-8.512C418.54,278.562,372.721,232.742,316.397,232.742z M268.16,318.254
	c0.153-0.443,0.323-0.885,0.485-1.328c0.918-2.435,1.991-4.792,3.251-7.03c0.178-0.324,0.384-0.631,0.572-0.946
	c1.37-2.316,2.875-4.545,4.586-6.606c0.043-0.059,0.102-0.102,0.145-0.162c1.72-2.052,3.609-3.942,5.626-5.702
	c0.221-0.197,0.434-0.409,0.664-0.605c1.975-1.668,4.101-3.166,6.323-4.528c0.374-0.23,0.741-0.46,1.124-0.681
	c2.212-1.278,4.537-2.393,6.946-3.337c0.418-0.162,0.844-0.315,1.269-0.467c2.477-0.895,5.023-1.627,7.652-2.129
	c0.332-0.069,0.683-0.094,1.021-0.153c2.793-0.461,5.644-0.767,8.572-0.767c2.928,0,5.78,0.307,8.572,0.774
	c0.339,0.06,0.682,0.094,1.021,0.153c2.63,0.502,5.174,1.235,7.653,2.128c0.424,0.154,0.851,0.308,1.268,0.469
	c2.409,0.946,4.725,2.052,6.937,3.336c0.375,0.222,0.749,0.451,1.125,0.682c2.22,1.361,4.34,2.852,6.323,4.528
	c0.229,0.196,0.442,0.409,0.664,0.605c2.009,1.762,3.907,3.652,5.625,5.702c0.043,0.059,0.102,0.102,0.145,0.162
	c1.711,2.06,3.208,4.289,4.587,6.597c0.188,0.323,0.4,0.63,0.579,0.953c1.261,2.239,2.333,4.596,3.251,7.023
	c0.171,0.443,0.332,0.885,0.486,1.328c0.842,2.443,1.514,4.954,1.975,7.55c0.034,0.187,0.058,0.384,0.086,0.571h-17.338
	c-0.299-1.166-0.759-2.256-1.175-3.362c-0.204-0.537-0.339-1.106-0.571-1.634c-0.817-1.873-1.778-3.669-2.912-5.355
	c-0.248-0.374-0.562-0.697-0.826-1.063c-0.928-1.285-1.915-2.512-3.013-3.652c-0.502-0.519-1.048-0.97-1.576-1.456
	c-0.98-0.893-1.975-1.745-3.048-2.519c-0.63-0.46-1.278-0.876-1.948-1.285c-1.098-0.682-2.231-1.294-3.404-1.846
	c-0.698-0.332-1.396-0.664-2.12-0.954c-1.303-0.509-2.649-0.902-4.027-1.251c-0.664-0.17-1.293-0.384-1.975-0.511
	c-2.06-0.4-4.178-0.647-6.366-0.647s-4.308,0.247-6.384,0.647c-0.673,0.128-1.312,0.35-1.976,0.511
	c-1.37,0.349-2.724,0.741-4.026,1.251c-0.723,0.29-1.422,0.622-2.12,0.954c-1.174,0.561-2.305,1.166-3.404,1.846
	c-0.664,0.417-1.31,0.834-1.95,1.285c-1.072,0.774-2.076,1.626-3.047,2.519c-0.527,0.486-1.082,0.937-1.576,1.456
	c-1.097,1.14-2.085,2.374-3.013,3.652c-0.265,0.366-0.579,0.689-0.827,1.063c-1.124,1.686-2.093,3.473-2.91,5.355
	c-0.229,0.528-0.366,1.091-0.572,1.634c-0.417,1.107-0.876,2.205-1.173,3.362h-17.329c0.034-0.187,0.052-0.384,0.085-0.571
	C266.654,323.216,267.317,320.697,268.16,318.254z M301.943,325.999c0.656-1.063,1.396-2.059,2.264-2.953
	c0.053-0.05,0.087-0.12,0.145-0.169c0.919-0.928,1.976-1.711,3.091-2.401c0.322-0.204,0.672-0.374,1.012-0.552
	c0.86-0.46,1.77-0.844,2.707-1.149c0.383-0.128,0.758-0.256,1.149-0.359c1.31-0.323,2.664-0.552,4.086-0.552
	c1.42,0,2.774,0.229,4.093,0.552c0.391,0.094,0.767,0.231,1.15,0.359c0.946,0.306,1.847,0.688,2.706,1.149
	c0.341,0.178,0.689,0.348,1.014,0.552c1.116,0.698,2.162,1.481,3.089,2.4c0.052,0.052,0.094,0.12,0.145,0.17
	c0.869,0.894,1.608,1.89,2.264,2.953c0.077,0.12,0.127,0.247,0.204,0.375h-29.316C301.816,326.255,301.866,326.127,301.943,325.999z
	 M383.965,326.374c-0.127-1.021-0.35-2.009-0.519-3.022c-0.153-0.894-0.273-1.796-0.46-2.673c-0.299-1.379-0.673-2.732-1.056-4.086
	c-0.204-0.723-0.366-1.464-0.588-2.179c-0.637-2.034-1.37-4.034-2.195-5.976c-0.052-0.119-0.111-0.229-0.162-0.348
	c-0.793-1.847-1.66-3.643-2.606-5.405c-0.348-0.647-0.749-1.252-1.122-1.89c-0.698-1.192-1.387-2.392-2.154-3.541
	c-0.469-0.707-0.987-1.38-1.49-2.069c-0.731-1.021-1.465-2.042-2.255-3.013c-0.562-0.698-1.168-1.361-1.763-2.042
	c-0.792-0.902-1.582-1.804-2.426-2.665c-0.646-0.663-1.31-1.294-1.983-1.923c-0.86-0.817-1.72-1.618-2.621-2.384
	c-0.707-0.605-1.438-1.192-2.17-1.771c-0.919-0.724-1.856-1.43-2.817-2.111c-0.767-0.545-1.541-1.064-2.333-1.575
	c-0.986-0.639-2-1.252-3.022-1.839c-0.818-0.468-1.626-0.928-2.46-1.361c-1.064-0.553-2.145-1.064-3.235-1.558
	c-0.844-0.383-1.685-0.774-2.554-1.124c-1.14-0.469-2.307-0.869-3.472-1.277c-0.86-0.297-1.711-0.605-2.579-0.87
	c-1.241-0.374-2.51-0.672-3.788-0.979c-0.841-0.196-1.668-0.425-2.519-0.595c-1.422-0.281-2.869-0.468-4.324-0.664
	c-0.732-0.094-1.456-0.239-2.197-0.306c-2.204-0.222-4.433-0.341-6.698-0.341c-2.264,0-4.494,0.12-6.698,0.341
	c-0.741,0.077-1.465,0.212-2.197,0.306c-1.447,0.187-2.903,0.384-4.324,0.664c-0.851,0.17-1.685,0.4-2.528,0.595
	c-1.269,0.298-2.537,0.606-3.779,0.972c-0.876,0.263-1.729,0.579-2.588,0.868c-1.167,0.401-2.332,0.809-3.464,1.269
	c-0.869,0.358-1.711,0.741-2.562,1.132c-1.09,0.494-2.163,1.005-3.217,1.549c-0.842,0.434-1.659,0.902-2.476,1.37
	c-1.021,0.588-2.019,1.192-3.005,1.831c-0.8,0.509-1.576,1.047-2.35,1.592c-0.954,0.672-1.88,1.37-2.793,2.095
	c-0.74,0.586-1.481,1.173-2.195,1.787c-0.894,0.765-1.745,1.557-2.596,2.365c-0.673,0.639-1.355,1.278-2,1.941
	c-0.836,0.86-1.626,1.754-2.409,2.655c-0.596,0.681-1.208,1.354-1.779,2.06c-0.784,0.971-1.506,1.983-2.239,2.996
	c-0.502,0.698-1.03,1.371-1.506,2.086c-0.759,1.14-1.447,2.332-2.137,3.515c-0.374,0.639-0.774,1.252-1.132,1.908
	c-0.963,1.787-1.855,3.625-2.655,5.507c-0.034,0.077-0.076,0.145-0.103,0.222c-0.835,1.957-1.557,3.974-2.205,6.018
	c-0.203,0.656-0.348,1.336-0.537,2c-0.401,1.413-0.791,2.826-1.107,4.273c-0.171,0.817-0.28,1.651-0.425,2.468
	c-0.187,1.064-0.418,2.112-0.553,3.192h-17.135c4.282-42.95,40.627-76.607,84.693-76.607c44.067,0,80.413,33.657,84.693,76.607
	h-17.125V326.374z"/>
<path style="fill:#F5BB00;" d="M455.643,311.375c-3.812-1.294-7.719-1.643-11.585-1.422c0-0.204,0.017-0.4,0.017-0.604
	c0-42.312-19.057-76.608-42.559-76.608c-23.502,0-42.561,34.294-42.561,76.608c0,0.323,0.025,0.63,0.025,0.954
	c-5.21-0.502-10.495,0.111-15.483,2.306c-17.202,7.584-28.488,29.426-19.962,48.782c7.424,16.812,26.908,26.182,35.419,23.392v26.71
	h68.096V384.91c17.023,2.919,38.048-7.968,44.279-26.328C478.124,338.553,473.451,317.42,455.643,311.375z"/>
<g>
	<path style="fill:#F7C933;" d="M461.1,317.861c0,0.204-0.017,0.4-0.017,0.605c1.847-0.102,3.712-0.059,5.567,0.136
		c-1.608-1.804-3.524-3.327-5.653-4.63C461.023,315.265,461.1,316.552,461.1,317.861z"/>
	<path style="fill:#F7C933;" d="M375.981,393.295c-4.027,1.319-10.521-0.162-17.024-3.797v21.995h17.024V393.295z"/>
	<path style="fill:#F7C933;" d="M340.571,369.904c-8.537-19.356,2.75-41.198,19.962-48.782c4.987-2.196,10.265-2.809,15.482-2.306
		c-0.009-0.324-0.033-0.631-0.033-0.954c0-42.312,19.057-76.607,42.559-76.607c0.91,0,1.804,0.145,2.698,0.247
		c-5.899-5.567-12.597-8.76-19.722-8.76c-23.502,0-42.559,34.294-42.559,76.607c0,0.324,0.024,0.631,0.024,0.954
		c-5.209-0.502-10.495,0.111-15.482,2.306c-17.203,7.584-28.49,29.426-19.961,48.782c5.831,13.219,19.057,21.731,28.609,23.451
		C347.457,380.943,343.226,375.931,340.571,369.904z"/>
</g>
<path d="M482.677,326.425c-4.724-11.185-13.355-19.389-24.301-23.11c-1.917-0.647-3.908-1.131-5.968-1.455
	c-2.212-44.092-23.765-77.629-50.892-77.629c-27.137,0-48.706,33.563-50.893,77.688c-3.687,0.451-7.218,1.422-10.555,2.894
	c-10.581,4.664-18.453,13.601-22.174,25.162c-3.599,11.201-2.851,23.578,2.121,34.846c7.293,16.549,22.717,27.572,38.94,28.832
	v9.328c0,4.699,3.806,8.513,8.513,8.513h68.096c4.707,0,8.513-3.813,8.513-8.513v-9.218c17.305-1.404,33.332-14.045,39.563-32.439
	C487.598,349.654,487.257,337.26,482.677,326.425z M467.518,355.861c-4.75,14.009-17.816,22.939-30.472,20.666
	c-2.485-0.45-5.022,0.247-6.946,1.864c-1.923,1.617-3.047,4.009-3.047,6.521v9.559h-17.024v-21.28l30.642-22.981
	c3.761-2.818,4.529-8.155,1.702-11.918c-2.818-3.755-8.154-4.538-11.908-1.703l-20.437,15.321v-42.561
	c0-4.698-3.806-8.512-8.513-8.512c-4.708,0-8.514,3.814-8.514,8.512v42.561l-20.427-15.322c-3.755-2.835-9.091-2.051-11.909,1.703
	c-2.827,3.762-2.06,9.099,1.703,11.918l30.642,22.982v21.28h-17.023v-9.687c0-2.52-1.115-4.912-3.048-6.529
	c-1.933-1.617-4.495-2.274-6.963-1.847c-11.933,2.163-24.71-5.618-30.37-18.446c-3.285-7.447-3.813-15.533-1.489-22.76
	c2.212-6.869,6.767-12.13,12.835-14.802c3.337-1.472,7.099-2,11.228-1.616c2.451,0.178,4.765-1.047,6.528-2.649
	c1.762-1.625,2.758-4.384,2.758-6.784c0-40.125,17.945-68.095,34.048-68.095c16.105,0,34.048,27.97,34.031,68.7
	c0,2.341,0.962,4.58,2.656,6.188c1.702,1.609,4.009,2.451,6.323,2.316c3.133-0.187,5.89,0.136,8.367,0.987
	c6.282,2.129,11.287,6.963,14.095,13.602C469.952,340.035,470.139,348.139,467.518,355.861z"/>
<path style="fill:#E6E6E6;" d="M486.338,505.124H27.289c-9.524,0-17.321-7.661-17.321-17.024v-17.024h493.692V488.1
	C503.66,497.464,495.863,505.124,486.338,505.124z"/>
<g>
	<rect x="120.621" y="471.079" style="fill:#F2F2F2;" width="34.047" height="34.048"/>
	<rect x="171.692" y="471.079" style="fill:#F2F2F2;" width="17.023" height="34.048"/>
	<rect x="205.741" y="471.079" style="fill:#F2F2F2;" width="17.024" height="34.048"/>
</g>
<path d="M486.338,513.637H27.289c-14.248,0-25.833-11.457-25.833-25.537v-17.024c0-4.698,3.813-8.512,8.512-8.512h493.692
	c4.707,0,8.511,3.813,8.511,8.512V488.1C512.172,502.18,500.586,513.637,486.338,513.637z M18.48,479.589v8.512
	c0,4.691,3.949,8.513,8.809,8.513h459.049c4.852,0,8.808-3.823,8.808-8.513v-8.512H18.48z"/>
<g>
	<path style="fill:#AC4327;" d="M256.814,300.837l112.033,80.029c4.477,3.192,7.134,8.35,7.134,13.849v43.615
		c0,8.879-6.818,16.259-15.67,16.973l-197.128,15.772L256.814,300.837z"/>
	<path style="fill:#AC4327;" d="M279.761,376.152c0,74.495-60.4,94.925-134.896,94.925c-74.496,0-134.896-20.43-134.896-94.925
		c0-74.496,60.393-134.897,134.896-134.897C219.369,241.255,279.761,301.646,279.761,376.152z"/>
</g>
<path style="fill:#EA7A5D;" d="M144.865,258.279c71.577,0,129.978,55.796,134.464,126.239c0.177-2.757,0.433-5.446,0.433-8.365
	c0-74.506-60.4-134.897-134.896-134.897c-74.496,0-134.896,60.391-134.896,134.897c0,2.919,0.255,5.617,0.434,8.365
	C14.888,314.074,73.287,258.279,144.865,258.279z"/>
<path style="fill:#E55934;" d="M244.948,370.994c0,55.277-44.807,70.428-100.084,70.428c-55.276,0-100.083-15.152-100.083-70.428
	c0-55.278,44.807-100.084,100.083-100.084C200.142,270.91,244.948,315.716,244.948,370.994z"/>
<path d="M144.865,449.933c-72.052,0-108.595-26.566-108.595-78.939c0-59.882,48.714-108.596,108.595-108.596
	c59.881,0,108.596,48.714,108.596,108.596C253.46,423.376,216.919,449.933,144.865,449.933z M144.865,279.422
	c-50.493,0-91.571,41.079-91.571,91.572c0,26.581,9.491,61.916,91.571,61.916s91.572-35.342,91.572-61.916
	C236.436,320.501,195.358,279.422,144.865,279.422z"/>
<path style="fill:#FAF3F1;" d="M149.937,337.635c-4.562,0-8.793,1.421-12.291,3.821c-3.499-2.4-7.73-3.821-12.292-3.821
	c-12.018,0-21.756,9.737-21.756,21.755s9.737,15.313,21.756,15.313c4.562,0,8.793-0.485,12.292-1.737
	c3.498,1.252,7.728,1.737,12.291,1.737c12.018,0,21.757-3.295,21.757-15.313S161.957,337.635,149.937,337.635z"/>
<path id="SVGCleanerId_0" d="M149.937,383.207c-4.689,0-8.741-0.443-12.291-1.354c-3.55,0.91-7.601,1.354-12.292,1.354
	c-26.336,0-30.268-14.921-30.268-23.816c0-16.692,13.576-30.268,30.268-30.268c4.273,0,8.444,0.894,12.292,2.614
	c3.846-1.72,8.018-2.614,12.291-2.614c16.692,0,30.268,13.576,30.268,30.268C180.207,368.287,176.274,383.207,149.937,383.207z
	 M137.647,364.456c0.97,0,1.94,0.171,2.86,0.502c2.298,0.817,5.473,1.234,9.423,1.234c13.253-0.009,13.253-4.094,13.253-6.801
	c0-7.303-5.942-13.244-13.244-13.244c-2.672,0-5.261,0.799-7.473,2.323c-2.903,1.991-6.734,1.991-9.636,0
	c-2.213-1.524-4.801-2.323-7.474-2.323c-7.304,0-13.244,5.941-13.244,13.244c0,2.707,0,6.792,13.244,6.792
	c3.958,0,7.124-0.418,9.422-1.234C135.706,364.618,136.676,364.456,137.647,364.456z"/>
<g>
	<path id="SVGCleanerId_0_1_" d="M149.937,383.207c-4.689,0-8.741-0.443-12.291-1.354c-3.55,0.91-7.601,1.354-12.292,1.354
		c-26.336,0-30.268-14.921-30.268-23.816c0-16.692,13.576-30.268,30.268-30.268c4.273,0,8.444,0.894,12.292,2.614
		c3.846-1.72,8.018-2.614,12.291-2.614c16.692,0,30.268,13.576,30.268,30.268C180.207,368.287,176.274,383.207,149.937,383.207z
		 M137.647,364.456c0.97,0,1.94,0.171,2.86,0.502c2.298,0.817,5.473,1.234,9.423,1.234c13.253-0.009,13.253-4.094,13.253-6.801
		c0-7.303-5.942-13.244-13.244-13.244c-2.672,0-5.261,0.799-7.473,2.323c-2.903,1.991-6.734,1.991-9.636,0
		c-2.213-1.524-4.801-2.323-7.474-2.323c-7.304,0-13.244,5.941-13.244,13.244c0,2.707,0,6.792,13.244,6.792
		c3.958,0,7.124-0.418,9.422-1.234C135.706,364.618,136.676,364.456,137.647,364.456z"/>
</g>
<rect x="375.981" y="402.981" style="fill:#FAF3F1;" width="68.099" height="34.048"/>
<path d="M444.077,445.541h-68.096c-4.707,0-8.513-3.813-8.513-8.513v-34.048c0-4.698,3.804-8.512,8.513-8.512h68.096
	c4.706,0,8.511,3.813,8.511,8.512v34.048C452.588,441.728,448.783,445.541,444.077,445.541z M384.492,428.517h51.072v-17.024
	h-51.072V428.517z"/>
<path style="fill:#FAF3F1;" d="M494.672,420.005c5.532-5.405,8.988-12.929,8.988-21.28c0-16.453-13.339-29.792-29.792-29.792
	c-16.454,0-29.792,13.339-29.792,29.792c0,8.351,3.456,15.875,8.987,21.28c-5.532,5.405-8.987,12.929-8.987,21.28
	c0,16.454,13.337,29.792,29.792,29.792c16.453,0,29.792-13.337,29.792-29.792C503.66,432.935,500.204,425.411,494.672,420.005z"/>
<path d="M473.869,479.589c-21.12,0-38.304-17.186-38.304-38.304c0-7.694,2.265-15.032,6.47-21.28
	c-4.205-6.247-6.47-13.585-6.47-21.279c0-21.119,17.186-38.304,38.304-38.304c21.116,0,38.303,17.186,38.303,38.304
	c0,7.695-2.265,15.033-6.47,21.279c4.205,6.249,6.47,13.586,6.47,21.28C512.172,462.402,494.985,479.589,473.869,479.589z
	 M473.869,377.446c-11.739,0-21.28,9.55-21.28,21.279c0,5.746,2.289,11.142,6.427,15.194c1.634,1.601,2.562,3.797,2.562,6.086
	c0,2.29-0.918,4.485-2.562,6.086c-4.136,4.053-6.427,9.448-6.427,15.194c0,11.729,9.542,21.28,21.28,21.28
	c11.736,0,21.278-9.55,21.278-21.28c0-5.746-2.288-11.142-6.425-15.194c-1.635-1.601-2.562-3.796-2.562-6.086
	c0-2.289,0.918-4.485,2.562-6.086c4.136-4.052,6.425-9.448,6.425-15.194C495.148,386.996,485.605,377.446,473.869,377.446z"/>
<path d="M512.172,398.725c0-21.119-17.187-38.303-38.303-38.303c-19.664,0-35.725,14.947-37.87,34.048h-51.532
	c-0.086-8.138-4.034-15.798-10.505-20.404L255.426,284.92c-26.318-31.842-66.112-52.178-110.562-52.178
	c-79.075,0-143.407,64.334-143.407,143.41c0,68.631,48.246,103.436,143.408,103.436c5.737,0,11.278-0.144,16.675-0.39
	c0.553,0.111,1.064,0.39,1.643,0.39c0.222,0,0.451-0.01,0.681-0.025L361,463.791c10.673-0.86,19.374-8.401,22.335-18.249h52.672
	c2.146,19.1,18.207,34.047,37.87,34.047c21.119,0,38.304-17.186,38.304-38.304c0-7.694-2.264-15.032-6.47-21.28
	C509.906,413.758,512.172,406.421,512.172,398.725z M144.865,462.565c-86.225,0-126.384-27.461-126.384-86.413
	c0-69.688,56.698-126.386,126.384-126.386S271.25,306.464,271.25,376.152C271.24,435.105,231.091,462.565,144.865,462.565z
	 M367.468,438.34c0,4.408-3.438,8.138-7.838,8.486l-110.621,8.844c26.029-17.253,39.265-43.751,39.265-79.527
	c0-18.71-3.702-36.542-10.249-52.936l85.885,64.589c2.23,1.592,3.558,4.179,3.558,6.919v8.265v34.048L367.468,438.34L367.468,438.34
	z M384.492,411.493h51.072v17.024h-51.072V411.493z M488.721,426.091c4.136,4.053,6.427,9.448,6.427,15.194
	c0,11.729-9.543,21.28-21.279,21.28c-11.739,0-21.28-9.55-21.28-21.28c0-5.746,2.289-11.142,6.426-15.194
	c1.634-1.601,2.562-3.796,2.562-6.086c0-2.29-0.918-4.485-2.562-6.086c-4.136-4.052-6.426-9.448-6.426-15.194
	c0-11.729,9.542-21.279,21.28-21.279c11.736,0,21.278,9.55,21.278,21.279c0,5.746-2.288,11.142-6.425,15.194
	c-1.635,1.601-2.562,3.796-2.562,6.086C486.159,422.294,487.086,424.491,488.721,426.091z"/>
<g>
	<path style="fill:#9BC53D;" d="M286.938,368.984c-11.722,20.369-12.625,46.229-0.034,68.044
		c12.589,21.816,35.443,33.962,58.945,33.996c11.721-20.369,12.624-46.229,0.036-68.044
		C333.293,381.164,310.438,369.019,286.938,368.984z"/>
	<path style="fill:#9BC53D;" d="M210.329,368.984c-11.72,20.369-12.623,46.229-0.034,68.044
		c12.589,21.816,35.443,33.962,58.944,33.996c11.722-20.369,12.624-46.229,0.034-68.044
		C256.677,381.164,233.831,369.019,210.329,368.984z"/>
</g>
<path d="M353.254,398.725c-13.601-23.552-39.001-38.209-66.307-38.253h-0.009c-3.039,0-5.856,1.626-7.38,4.265
	c-4.529,7.874-7.414,16.402-8.93,25.118c-14.359-18.327-36.592-29.434-60.281-29.434h-0.009c-3.047,0-5.856,1.652-7.38,4.289
	c-13.62,23.663-13.629,53.022-0.026,76.573c13.603,23.553,39.01,38.209,66.309,38.253h0.009c3.039,0,5.856-1.643,7.38-4.282
	c4.537-7.882,7.414-16.412,8.93-25.127c14.36,18.308,36.591,29.374,60.288,29.408h0.009c3.039,0,5.856-1.625,7.38-4.263
	C366.847,451.619,366.855,422.287,353.254,398.725z M267.886,451.653l-24.981-43.275c-2.358-4.077-7.551-5.481-11.628-3.115
	c-4.078,2.35-5.465,7.559-3.115,11.627l24.983,43.267c-14.759-4.179-27.647-13.84-35.461-27.384
	c-9.738-16.853-10.495-37.512-2.306-55.056c19.287,1.677,36.797,12.667,46.526,29.52
	C269.726,420.788,271.649,436.782,267.886,451.653z M344.495,451.644l-24.983-43.266c-2.358-4.077-7.576-5.473-11.627-3.115
	c-4.077,2.35-5.472,7.559-3.115,11.627l24.983,43.267c-14.76-4.179-27.648-13.84-35.462-27.384
	c-9.738-16.853-10.493-37.52-2.307-55.056c19.289,1.677,36.798,12.667,46.528,29.52
	C346.332,420.788,348.257,436.782,344.495,451.644z"/>
<path d="M163.183,181.671c-2.246,0-4.486-0.886-6.162-2.638l-43.318-45.454C98.748,117.55,90.967,96.739,91.726,74.923
	c0.758-21.816,9.967-42.04,25.926-56.928c27.051-25.22,69.585-23.757,94.822,3.302c10.087,10.819,15.365,24.915,14.854,39.7
	c-0.519,14.778-6.75,28.481-17.569,38.568c-18.548,17.305-47.717,16.283-65.014-2.264c-3.208-3.439-3.022-8.827,0.417-12.027
	c3.439-3.209,8.819-3.013,12.028,0.418c10.912,11.696,29.272,12.325,40.959,1.422c7.491-6.989,11.815-16.479,12.172-26.711
	c0.358-10.231-3.294-20.003-10.281-27.485c-18.828-20.182-50.561-21.289-70.76-2.46c-12.64,11.789-19.927,27.8-20.53,45.072
	c-0.595,17.27,5.567,33.749,17.356,46.389l43.258,45.386c3.243,3.404,3.115,8.793-0.29,12.035
	C167.405,180.888,165.294,181.671,163.183,181.671z"/>
<path d="M197.23,215.719c-2.179,0-4.358-0.834-6.018-2.494l-8.513-8.512c-3.327-3.328-3.327-8.708,0-12.036
	c3.328-3.328,8.709-3.328,12.036,0l8.512,8.512c3.329,3.328,3.329,8.708,0,12.036C201.588,214.885,199.41,215.719,197.23,215.719z"
	/>
<path d="M310.396,224.409c-2.113,0-4.222-0.782-5.865-2.349c-3.406-3.243-3.533-8.631-0.29-12.035l36.918-38.729
	c9.755-10.461,14.886-24.173,14.384-38.559c-0.51-14.385-6.571-27.715-17.101-37.529c-8.086-7.55-18.673-11.526-29.68-11.108
	c-11.057,0.383-21.297,5.047-28.837,13.134c-5.73,6.138-8.717,14.138-8.428,22.522c0.289,8.393,3.832,16.164,9.967,21.884
	c9.457,8.818,24.318,8.29,33.129-1.149c3.217-3.431,8.588-3.627,12.035-0.418c3.431,3.201,3.626,8.588,0.418,12.027
	c-15.22,16.318-40.891,17.186-57.183,1.992c-9.466-8.827-14.929-20.811-15.381-33.741c-0.451-12.938,4.162-25.272,12.989-34.729
	c10.648-11.414,25.092-17.994,40.696-18.539c15.483-0.613,30.472,5.022,41.888,15.67c13.849,12.921,21.832,30.456,22.496,49.387
	c0.664,18.93-6.095,36.984-19.007,50.833l-36.985,38.798C314.882,223.524,312.644,224.409,310.396,224.409z"/>
<g>
</g>
<g>
</g>
<g>
</g>
<g>
</g>
<g>
</g>
<g>
</g>
<g>
</g>
<g>
</g>
<g>
</g>
<g>
</g>
<g>
</g>
<g>
</g>
<g>
</g>
<g>
</g>
<g>
</g>
</svg>
