<?xml version="1.0"?>
<svg xmlns="http://www.w3.org/2000/svg" id="Layer_1" data-name="Layer 1" viewBox="0 0 512 512" width="512" height="512"><title>food map pointer</title><path d="M438.94,256c0,101.03-81.91,182.94-182.94,182.94S73.06,357.03,73.06,256,154.97,73.06,256,73.06,438.94,154.97,438.94,256ZM396,256A140,140,0,1,0,256,396,140,140,0,0,0,396,256Z" style="fill:#f8ec7d"/><path d="M219.46,272.41a12.763,12.763,0,0,0-12.76,12.76v65.24a12.76,12.76,0,1,0,25.52,0V285.17a12.769,12.769,0,0,0-12.76-12.76ZM256,116A140,140,0,1,1,116,256,140,140,0,0,1,256,116Zm55,179.5V157.38l-18.85.19a20.136,20.136,0,0,0-19.69,20.14V352.87a11.75,11.75,0,1,0,23.5,0V295.5Z" style="fill:#e48e66"/><path d="M311,157.38V295.5H272.46V177.71a20.136,20.136,0,0,1,19.69-20.14Z" style="fill:#f8ec7d"/><path d="M295.96,295.98v56.89a11.75,11.75,0,0,1-23.5,0V295.5h23.5Z" style="fill:#6fe3ff"/><path d="M232.22,285.17v65.24a12.76,12.76,0,0,1-25.52,0V285.17a12.76,12.76,0,0,1,25.52,0Z" style="fill:#6fe3ff"/><path d="M486,250H444.836C441.717,150.578,361.422,70.283,262,67.165V26a6,6,0,0,0-12,0V67.165C150.578,70.283,70.283,150.578,67.164,250H26a6,6,0,0,0,0,12H67.164C70.283,361.422,150.578,441.717,250,444.835V486a6,6,0,0,0,12,0V444.835C361.422,441.717,441.717,361.422,444.836,262H486a6,6,0,0,0,0-12ZM262,432.828V420.17a6,6,0,0,0-12,0v12.658C157.2,429.718,82.281,354.8,79.172,262H91.83a6,6,0,0,0,0-12H79.172C82.281,157.2,157.2,82.282,250,79.172V91.83a6,6,0,0,0,12,0V79.172C354.805,82.282,429.719,157.2,432.828,250H420.17a6,6,0,0,0,0,12h12.658C429.719,354.8,354.805,429.718,262,432.828Z" style="fill:#63316d"/><path d="M256,110c-80.5,0-146,65.5-146,146s65.5,146,146,146,146-65.495,146-146S336.505,110,256,110Zm0,280c-73.888,0-134-60.112-134-134s60.112-134,134-134,134,60.112,134,134S329.888,390,256,390Z" style="fill:#63316d"/><path d="M237.92,153.89a6,6,0,0,0-6,6v38.67a12.466,12.466,0,0,1-6.46,10.913V159.89a6,6,0,0,0-12,0v49.585A12.465,12.465,0,0,1,207,198.56V159.89a6,6,0,0,0-12,0v38.67a24.5,24.5,0,0,0,18.46,23.721v45.131A18.78,18.78,0,0,0,200.7,285.17v65.24a18.76,18.76,0,1,0,37.52,0V285.17A18.747,18.747,0,0,0,225.46,267.4V222.273a24.5,24.5,0,0,0,18.46-23.713V159.89A6,6,0,0,0,237.92,153.89Zm-11.7,196.52a6.76,6.76,0,0,1-13.52,0V285.17a6.767,6.767,0,0,1,6.76-6.76,6.769,6.769,0,0,1,6.76,6.76Z" style="fill:#63316d"/><path d="M310.939,151.38l-18.919.191a26.288,26.288,0,0,0-25.56,26.139V352.87a17.75,17.75,0,1,0,35.5,0V301.5H311a6,6,0,0,0,6-6V157.38a6,6,0,0,0-1.779-4.264A6.145,6.145,0,0,0,310.939,151.38ZM289.96,352.87a5.75,5.75,0,0,1-11.5,0V301.5h11.5ZM305,289.5H278.46V177.71a14.2,14.2,0,0,1,13.751-14.14L305,163.44Z" style="fill:#63316d"/></svg>
