<?xml version="1.0"?>
<svg xmlns="http://www.w3.org/2000/svg" xmlns:xlink="http://www.w3.org/1999/xlink" xmlns:svgjs="http://svgjs.com/svgjs" version="1.1" width="512" height="512" x="0" y="0" viewBox="0 0 128 128" style="enable-background:new 0 0 512 512" xml:space="preserve" class=""><g transform="matrix(1,0,0,1,0,0)"><path xmlns="http://www.w3.org/2000/svg" d="m100.9 24.3v79.3c0 3-2.4 5.3-5.3 5.3h-57.1c-3 0-5.3-2.4-5.3-5.3v-79.3c0-3 2.4-5.4 5.3-5.4h57.1c2.9.1 5.3 2.5 5.3 5.4z" fill="#fdbd40" data-original="#fdbd40" style="" class=""/><g xmlns="http://www.w3.org/2000/svg" fill="#e97424"><path d="m33.1 28.7v8h-3.2c-2.1 0-3.7-1.7-3.7-3.7v-.6c0-2.1 1.7-3.7 3.7-3.7z" fill="#e97424" data-original="#e97424" style="" class=""/><path d="m33.1 44.4v8h-3.2c-2.1 0-3.7-1.7-3.7-3.7v-.5c0-2.1 1.7-3.7 3.7-3.7h3.2z" fill="#e97424" data-original="#e97424" style="" class=""/><path d="m33.1 60v8h-3.2c-2.1 0-3.7-1.7-3.7-3.7v-.6c0-2.1 1.7-3.7 3.7-3.7z" fill="#e97424" data-original="#e97424" style="" class=""/><path d="m33.1 75.6v8h-3.2c-2.1 0-3.7-1.7-3.7-3.7v-.6c0-2.1 1.7-3.7 3.7-3.7z" fill="#e97424" data-original="#e97424" style="" class=""/><path d="m33.1 91.2v8h-3.2c-2.1 0-3.7-1.7-3.7-3.7v-.5c0-2.1 1.7-3.7 3.7-3.7h3.2z" fill="#e97424" data-original="#e97424" style="" class=""/></g><g xmlns="http://www.w3.org/2000/svg" fill="#593116"><path d="m53 71c-.7-.2-1.5 0-1.9.6l-2.2 2.8-2.2-2.8c-.5-.6-1.2-.8-1.9-.6s-1.2.9-1.2 1.7v9.1c0 1 .8 1.8 1.8 1.8s1.8-.8 1.8-1.8v-4.1l.5.6c.7.8 2.1.8 2.7 0l.5-.6v4.1c0 1 .8 1.8 1.8 1.8s1.8-.8 1.8-1.8v-9.1c-.3-.8-.8-1.5-1.5-1.7z" fill="#593116" data-original="#593116" style="" class=""/><path d="m64.8 74.4c1 0 1.7-.8 1.7-1.8s-.8-1.8-1.7-1.8h-6.6c-1 0-1.8.8-1.8 1.8v4.6 4.6c0 1 .8 1.8 1.8 1.8h6.6c1 0 1.7-.8 1.7-1.8s-.7-1.8-1.7-1.8h-4.9v-1h4.9c1 0 1.7-.8 1.7-1.8s-.8-1.8-1.7-1.8h-4.9v-1.1h4.9z" fill="#593116" data-original="#593116" style="" class=""/><path d="m76.7 70.9c-1 0-1.8.8-1.8 1.8v3.7l-3.4-4.7c-.4-.6-1.2-.9-2-.6-.7.2-1.2.9-1.2 1.7v9.1c0 1 .8 1.8 1.8 1.8s1.8-.8 1.8-1.8v-3.9l3.4 4.7c.3.5.9.7 1.4.7.2 0 .4 0 .5-.1.7-.2 1.2-.9 1.2-1.7v-9.1c.1-.8-.7-1.6-1.7-1.6z" fill="#593116" data-original="#593116" style="" class=""/><path d="m88.6 70.9c-1 0-1.8.8-1.8 1.8v4.6 1.3c0 .9-.7 1.6-1.6 1.6s-1.6-.7-1.6-1.6v-1.3-4.6c0-1-.8-1.8-1.8-1.8s-1.8.8-1.8 1.8v4.6 1.3c0 2.8 2.3 5.1 5.1 5.1s5.1-2.3 5.1-5.1v-1.3-4.6c.2-1-.6-1.8-1.6-1.8z" fill="#593116" data-original="#593116" style="" class=""/></g><path xmlns="http://www.w3.org/2000/svg" d="m86.5 69.8h-39.2c-.8 0-1.5-.7-1.5-1.5s.7-1.5 1.5-1.5h39.2c.8 0 1.5.7 1.5 1.5s-.6 1.5-1.5 1.5z" fill="#593116" data-original="#593116" style="" class=""/><path xmlns="http://www.w3.org/2000/svg" d="m86.5 87.5h-39.2c-.8 0-1.5-.7-1.5-1.5s.7-1.5 1.5-1.5h39.2c.8 0 1.5.7 1.5 1.5s-.6 1.5-1.5 1.5z" fill="#593116" data-original="#593116" style="" class=""/><path xmlns="http://www.w3.org/2000/svg" d="m72.6 42.1v-1c0-3.1-2.5-5.6-5.6-5.6s-5.6 2.5-5.6 5.6v1c-8 2.4-13.5 9.6-13.8 17.9 0 1.2.9 2.1 2 2.2h.1 34.7c.6 0 1.1-.2 1.5-.6s.6-1 .6-1.5c-.4-8.4-6-15.6-13.9-18zm-5.7-3.6c1.5 0 2.6 1.2 2.6 2.6v.3c-1.7-.2-3.5-.2-5.3 0v-.3c.1-1.5 1.3-2.6 2.7-2.6zm-16.3 20.7c.8-9 8.8-15.7 17.9-14.9 7.9.7 14.1 7 14.9 14.9z" fill="#593116" data-original="#593116" style="" class=""/><g xmlns="http://www.w3.org/2000/svg" fill="#593116"><path d="m95.6 17.2h-57.1c-3.9 0-7.1 3.2-7.1 7.1v2.7h-1.4c-3 0-5.5 2.4-5.5 5.5v.5c0 3 2.5 5.5 5.5 5.5h1.4v4.1h-1.4c-3 0-5.5 2.5-5.5 5.5v.5c0 3 2.5 5.5 5.5 5.5h1.4v4.1h-1.4c-3 0-5.5 2.4-5.5 5.5v.6c0 3 2.5 5.5 5.5 5.5h1.4v4.1h-1.4c-3 0-5.5 2.4-5.5 5.5v.6c0 3 2.5 5.5 5.5 5.5h1.4v4.1h-1.4c-3 0-5.5 2.4-5.5 5.5v.6c0 3 2.5 5.5 5.5 5.5h1.4v2.7c0 3.9 3.2 7.1 7.1 7.1h57.1c3.9 0 7.1-3.2 7.1-7.1v-32.3c0-1-.8-1.8-1.8-1.8s-1.8.8-1.8 1.8v32.1c0 2-1.6 3.6-3.6 3.6h-57c-2 0-3.6-1.6-3.6-3.6v-79.4c0-2 1.6-3.6 3.6-3.6h57.1c2 0 3.6 1.6 3.6 3.6v20.8c0 1 .8 1.8 1.8 1.8s1.8-.8 1.8-1.8v-20.8c-.2-3.9-3.3-7-7.2-7.1zm-65.7 17.8c-1.1 0-2-.9-2-2v-.6c0-1.1.9-2 2-2h1.4v4.6zm0 15.6c-1.1 0-2-.9-2-2v-.5c0-1.1.9-2 2-2h1.4v4.5zm0 15.6c-1.1 0-2-.9-2-2v-.6c0-1.1.9-2 2-2h1.4v4.5h-1.4zm0 15.7c-1.1 0-2-.9-2-2v-.6c0-1.1.9-2 2-2h1.4v4.5zm0 15.6c-1.1 0-2-.9-2-2v-.5c0-1.1.9-2 2-2h1.4v4.5z" fill="#593116" data-original="#593116" style="" class=""/><path d="m100.9 56.1c-1 0-1.8.8-1.8 1.8v1.4c0 1 .8 1.8 1.8 1.8s1.8-.8 1.8-1.8v-1.4c0-1.1-.8-1.8-1.8-1.8z" fill="#593116" data-original="#593116" style="" class=""/></g></g></svg>
